<?xml version="1.0" encoding="UTF-8" standalone="no"?>
<!-- Created with Inkscape (http://www.inkscape.org/) -->

<svg
   xmlns:dc="http://purl.org/dc/elements/1.1/"
   xmlns:cc="http://creativecommons.org/ns#"
   xmlns:rdf="http://www.w3.org/1999/02/22-rdf-syntax-ns#"
   xmlns:svg="http://www.w3.org/2000/svg"
   xmlns="http://www.w3.org/2000/svg"
   xmlns:sodipodi="http://sodipodi.sourceforge.net/DTD/sodipodi-0.dtd"
   xmlns:inkscape="http://www.inkscape.org/namespaces/inkscape"
   width="70.866142"
   height="70.866142"
   id="svg2"
   version="1.1"
   inkscape:version="0.47 r22583"
   sodipodi:docname="New document 1">
  <defs
     id="defs4">
    <inkscape:perspective
       sodipodi:type="inkscape:persp3d"
       inkscape:vp_x="0 : 526.18109 : 1"
       inkscape:vp_y="0 : 1000 : 0"
       inkscape:vp_z="744.09448 : 526.18109 : 1"
       inkscape:persp3d-origin="372.04724 : 350.78739 : 1"
       id="perspective10" />
    <inkscape:perspective
       id="perspective2826"
       inkscape:persp3d-origin="0.5 : 0.33333333 : 1"
       inkscape:vp_z="1 : 0.5 : 1"
       inkscape:vp_y="0 : 1000 : 0"
       inkscape:vp_x="0 : 0.5 : 1"
       sodipodi:type="inkscape:persp3d" />
    <inkscape:perspective
       id="perspective3626"
       inkscape:persp3d-origin="0.5 : 0.33333333 : 1"
       inkscape:vp_z="1 : 0.5 : 1"
       inkscape:vp_y="0 : 1000 : 0"
       inkscape:vp_x="0 : 0.5 : 1"
       sodipodi:type="inkscape:persp3d" />
  </defs>
  <sodipodi:namedview
     id="base"
     pagecolor="#ffffff"
     bordercolor="#666666"
     borderopacity="1.0"
     inkscape:pageopacity="0.0"
     inkscape:pageshadow="2"
     inkscape:zoom="5.6"
     inkscape:cx="44.771299"
     inkscape:cy="40.20305"
     inkscape:document-units="cm"
     inkscape:current-layer="layer1"
     showgrid="false"
     units="cm"
     inkscape:snap-grids="true"
     inkscape:window-width="1091"
     inkscape:window-height="754"
     inkscape:window-x="266"
     inkscape:window-y="23"
     inkscape:window-maximized="0" />
  <metadata
     id="metadata7">
    <rdf:RDF>
      <cc:Work
         rdf:about="">
        <dc:format>image/svg+xml</dc:format>
        <dc:type
           rdf:resource="http://purl.org/dc/dcmitype/StillImage" />
        <dc:title></dc:title>
      </cc:Work>
    </rdf:RDF>
  </metadata>
  <g
     inkscape:label="Layer 1"
     inkscape:groupmode="layer"
     id="layer1"
     transform="translate(0,-981.49473)">
    <path
       sodipodi:type="spiral"
       style="fill:none;stroke:#000000;stroke-width:0.99212599;stroke-linecap:round;stroke-linejoin:miter;stroke-miterlimit:4;stroke-opacity:1;stroke-dasharray:none"
       id="path2816"
       sodipodi:cx="57.857143"
       sodipodi:cy="29.616142"
       sodipodi:expansion="1"
       sodipodi:revolution="1.6"
       sodipodi:radius="11.6291"
       sodipodi:argument="-15.769424"
       sodipodi:t0="0"
       d="m 57.857143,29.616142 c -1.091181,0.06715 -0.628867,-1.437762 -0.111607,-1.813616 1.401742,-1.018541 3.205096,0.212779 3.738839,1.590401 0.954742,2.464244 -0.927002,5.007976 -3.292409,5.664063 -3.47133,0.962834 -6.84233,-1.642979 -7.589287,-4.994418 -0.995576,-4.46694 2.358539,-8.688775 6.696427,-9.51451 5.458789,-1.039103 10.541208,3.073645 11.439733,8.398435 0.396124,2.347485 3.1e-4,4.792322 -1.071473,6.914283"
       transform="matrix(0,1,-1,0,89.960088,954.97153)" />
    <path
       style="fill:#000000;fill-opacity:1;stroke:#000000;stroke-width:1px;stroke-linecap:butt;stroke-linejoin:miter;stroke-opacity:1"
       d="m 47.714283,1011.6465 c 4.422267,3.6814 5.032642,5.4448 7.565227,7.9969 2.433503,2.4523 8.50932,2.8802 11.157131,-0.18 1.394339,-1.6115 2.475318,-3.9496 2.516993,-6.0523 0.08706,-4.3928 -2.929811,-6.5143 -2.929811,-6.5143 0,0 3.147673,1.708 3.191316,7.6258 0.03726,5.0527 -3.151911,7.3549 -5.227347,8.5467 -4.936558,1.871 -9.489488,-0.3524 -9.487791,-0.3514 -0.126269,0.3024 -6.167273,-4.4484 -9.82143,-3.5714 -4.019342,0.9646 -8.098849,-1.0498 -8.098849,-1.0498 -0.07395,-7.1911 0.04323,-3.7368 -0.04618,-11.7689 1.921108,0.1583 4.295077,-0.3041 11.180741,5.3187 z"
       id="path2844"
       sodipodi:nodetypes="cssscsccsccc" />
    <path
       sodipodi:type="spiral"
       style="fill:none;stroke:#000000;stroke-width:0.99212599;stroke-linecap:round;stroke-linejoin:miter;stroke-miterlimit:4;stroke-opacity:1;stroke-dasharray:none"
       id="path2816-9"
       sodipodi:cx="57.857143"
       sodipodi:cy="29.616142"
       sodipodi:expansion="1"
       sodipodi:revolution="1.6"
       sodipodi:radius="11.6291"
       sodipodi:argument="-15.769424"
       sodipodi:t0="0"
       d="m 57.857143,29.616142 c -1.091181,0.06715 -0.628867,-1.437762 -0.111607,-1.813616 1.401742,-1.018541 3.205096,0.212779 3.738839,1.590401 0.954742,2.464244 -0.927002,5.007976 -3.292409,5.664063 -3.47133,0.962834 -6.84233,-1.642979 -7.589287,-4.994418 -0.995576,-4.46694 2.358539,-8.688775 6.696427,-9.51451 5.458789,-1.039103 10.541208,3.073645 11.439733,8.398435 0.396124,2.347485 3.1e-4,4.792322 -1.071473,6.914283"
       transform="matrix(0,1,1,0,-16.729688,954.16391)" />
    <path
       style="fill:#000000;fill-opacity:1;stroke:#000000;stroke-width:1px;stroke-linecap:butt;stroke-linejoin:miter;stroke-opacity:1"
       d="m 24.73512,1011.559 c -4.4223,3.6814 -5.0326,5.4448 -7.5652,7.9969 -2.4335,2.4523 -8.5093009,2.8802 -11.1571009,-0.18 -1.3944,-1.6115 -2.4754,-3.9496 -2.517,-6.0523 -0.087,-4.3928 2.9298,-6.5143 2.9298,-6.5143 0,0 -3.1477,1.708 -3.1913,7.6258 -0.037,5.0527 3.1519,7.3549 5.2273,8.5467 4.9366009,1.871 9.4895009,-0.3524 9.4878009,-0.3514 0.1263,0.3024 6.1673,-4.4484 9.8214,-3.5714 4.0194,0.9646 8.09887,-1.0498 8.09887,-1.0498 0.0739,-7.1911 -0.0432,-3.7368 0.0462,-11.7689 -1.92115,0.1583 -4.29505,-0.3041 -11.18075,5.3187 z"
       id="path2844-3"
       sodipodi:nodetypes="cssscsccsccc" />
  </g>
</svg>
